<?xml version="1.0" encoding="utf-8"?>
<!-- Generator: Adobe Illustrator 27.5.0, SVG Export Plug-In . SVG Version: 6.00 Build 0)  -->
<svg version="1.1" xmlns="http://www.w3.org/2000/svg" xmlns:xlink="http://www.w3.org/1999/xlink" x="0px" y="0px"
	 viewBox="0 0 2500 2500" style="enable-background:new 0 0 2500 2500;" xml:space="preserve">
<g id="Background">
	<rect style="fill:#FFFFFF;" width="2500" height="2500"/>
</g>
<g id="Illustration">
	<g>
		<g>
			<path style="fill:#F9EFE4;" d="M1112.645,359.502c-247.371,4.142-630.103,93.287-740.267,322.376
				c-38.476,80.012-35.871,197.639-30.662,432.893c1.531,69.147,4.07,169.93,21.901,294.98
				c37.041,259.767,62.256,436.608,157.69,539.579c239.127,258.014,1102.913,250.558,1471.774-213.951
				c201.216-253.394,232.171-613.854,48.183-911.756C1838.698,495.636,1443.817,353.957,1112.645,359.502z"/>
			<g>
				<g>
					<g>
						<linearGradient id="SVGID_1_" gradientUnits="userSpaceOnUse" x1="1106.5038" y1="1452.7716" x2="1867.2024" y2="1452.7716">
							<stop  offset="0" style="stop-color:#799B91"/>
							<stop  offset="1" style="stop-color:#3E6764"/>
						</linearGradient>
						<path style="fill:url(#SVGID_1_);" d="M1240.532,1980.696c-12.052-1.896-36.598-16.647-41.412-23.13
							c-32.033-43.145-97.256-120.028-92.356-176.623c0.837-9.666,44.351-17.462,50.659-26.181
							c26.537-11.704,36.469-14.119,56.231-37.639c58.342-69.439-66.584-206.282,84.33-249.018
							c110.542-31.303,202.07,9.002,194.966-161.462s136.35-476.785,312.738-353.156c101.23,70.951-7.421,212.753,42.692,320.933
							c47.62,102.799,2.331,185.103-107.077,242.997c-109.408,57.894-53.146,106.266-24.49,203.5
							c34.422,116.799-144.222,132.408-227.312,132.578C1422.591,1853.632,1252.306,1899.123,1240.532,1980.696z"/>
						<g>
							<defs>
								<path id="SVGID_00000036940725610307103750000015888725238878368912_" d="M1079.776,1765.541
									c23.698,80.445,44.5,163.279,67.927,244.419c47.572,5.178,103.657,10.11,115.821-48.22
									c16.912-81.096,159.267-108.611,226.122-108.392c82.746,0.271,261.657-15.766,227.174-132.453
									c-28.707-97.141-84.913-145.614,24.489-203.486c109.403-57.872,154.67-140.186,107.07-242.997
									c-50.092-108.192,58.529-249.922-42.692-320.929c-176.373-123.726-319.893,182.87-312.711,353.092
									c7.183,170.222-84.709,130.923-194.92,161.344c-150.462,41.533-27.212,182.775-83.924,247.669
									C1169.673,1766.462,1136.021,1756.02,1079.776,1765.541z"/>
							</defs>
							<clipPath id="SVGID_00000041974205219447596310000001604395465146283911_">
								<use xlink:href="#SVGID_00000036940725610307103750000015888725238878368912_"  style="overflow:visible;"/>
							</clipPath>
							<g style="clip-path:url(#SVGID_00000041974205219447596310000001604395465146283911_);">
								<path style="fill:#FCFDFE;" d="M1154.251,1874.028l-0.934-2.059c93.404-42.378,178.903-98.493,254.116-166.786
									c72.276-65.626,135.183-142.569,186.972-228.691c100.557-167.224,157.585-366.398,164.918-575.989l2.261,0.079
									c-7.349,209.973-64.488,409.522-165.243,577.075c-51.901,86.311-114.947,163.425-187.389,229.199
									C1333.565,1775.308,1247.872,1831.553,1154.251,1874.028z"/>
								<path style="fill:#FCFDFE;" d="M1736.745,1767.665c-102.897-36.928-276.551-42.64-387.1-12.731l-0.592-2.183
									c110.924-30.01,285.185-24.276,388.456,12.785L1736.745,1767.665z"/>
								<path style="fill:#FCFDFE;" d="M1225.275,1840.826l-1.466-1.719c45.295-38.679,69.297-98.762,71.34-178.581
									c1.497-58.507-8.623-126.063-30.078-200.791l2.173-0.624c21.519,74.95,31.668,142.736,30.164,201.472
									C1295.35,1741.071,1271.082,1801.713,1225.275,1840.826z"/>
								<path style="fill:#FCFDFE;" d="M1609.75,1453.281l-1.555-1.642c81.524-77.197,198.216-95.235,281.754-96.772l0.04,2.261
									C1806.853,1358.658,1690.748,1376.582,1609.75,1453.281z"/>
								<path style="fill:#FCFDFE;" d="M1710.949,1217.024l-2.248-0.225c5.419-54.071-0.305-164.356-99.516-295.463l1.802-1.365
									c33.505,44.273,60.328,92.689,77.571,140.011C1708.402,1114.441,1715.935,1167.278,1710.949,1217.024z"/>
							</g>
						</g>
					</g>
				</g>
				<g>
					<g>
						
							<linearGradient id="SVGID_00000155124189055969885020000003519491444611485877_" gradientUnits="userSpaceOnUse" x1="-277.0272" y1="73.5293" x2="211.8462" y2="73.5293" gradientTransform="matrix(0.9055 -0.4244 0.4244 0.9055 1272.0262 738.5785)">
							<stop  offset="0" style="stop-color:#799B91"/>
							<stop  offset="1" style="stop-color:#3E6764"/>
						</linearGradient>
						<path style="fill:url(#SVGID_00000155124189055969885020000003519491444611485877_);" d="M1351.09,1253.286
							c-8.013,4.383-29.311,6.855-35.128,5.21c-38.714-10.945-112.53-26.729-135.489-62.53c-3.921-6.114,18.32-30.625,18.076-38.678
							c10.387-19.069,15.173-25.04,16.143-48.019c2.862-67.841-133.762-91.896-63.8-186.21
							c51.246-69.084,123.943-87.014,41.823-184.853s-137.048-345.052,24.053-352.353c92.457-4.19,92.833,129.555,171.992,170.803
							c75.221,39.197,85.98,108.702,47.559,193.036s17.05,87.305,78.482,131.869c73.793,53.531-25.01,144.432-74.205,182.507
							C1400.979,1094.73,1320.79,1199.532,1351.09,1253.286z"/>
						<g>
							<defs>
								<path id="SVGID_00000181057119377228748590000000632721673054505635_" d="M1157.428,1199.168
									c50.819,36.873,101.012,76.488,151.988,113.897c30.577-18.671,66.09-41.379,46.645-81.528
									c-27.034-55.819,44.808-137.196,84.554-167.621c49.193-37.657,147.958-128.934,74.181-182.371
									c-61.42-44.485-116.903-47.542-78.476-131.86c38.427-84.318,27.651-153.819-47.563-193.032
									c-79.152-41.265-79.513-174.954-171.99-170.801c-161.136,7.237-106.122,254.643-24.066,352.303
									c82.056,97.66,9.602,116.353-41.85,184.762c-70.243,93.394,67.396,120.823,63.424,185.225
									C1211.159,1158.628,1186.431,1167.817,1157.428,1199.168z"/>
							</defs>
							<clipPath id="SVGID_00000176045377940847077180000001367495881935462299_">
								<use xlink:href="#SVGID_00000181057119377228748590000000632721673054505635_"  style="overflow:visible;"/>
							</clipPath>
							<g style="clip-path:url(#SVGID_00000176045377940847077180000001367495881935462299_);">
								<path style="fill:#FCFDFE;" d="M1251.174,1229.465l-1.495-0.794c36.021-67.819,61.076-140.171,74.466-215.043
									c12.867-71.949,15.006-146.327,6.357-221.066c-16.796-145.122-74.005-289.297-165.446-416.937l1.377-0.986
									c91.606,127.874,148.922,272.321,165.75,417.729c8.669,74.903,6.525,149.446-6.372,221.559
									C1312.391,1088.972,1287.279,1161.489,1251.174,1229.465z"/>
								<path style="fill:#FCFDFE;" d="M1547.985,900.174c-77.896,25.128-183.484,101.106-235.371,169.366l-1.349-1.024
									c52.063-68.492,158.022-144.734,236.199-169.954L1547.985,900.174z"/>
								<path style="fill:#FCFDFE;" d="M1278.118,1177.315l-1.655-0.349c9.183-43.638-4.043-90.237-39.311-138.504
									c-25.851-35.379-62.728-70.815-109.604-105.324l1.003-1.363c47.015,34.611,84.013,70.17,109.966,105.688
									C1274.082,1086.134,1287.406,1133.186,1278.118,1177.315z"/>
								<path style="fill:#FCFDFE;" d="M1328.994,771.784l-1.672-0.263c13.063-83.037,74.018-147.065,122.854-186.156l1.057,1.323
									C1402.631,625.59,1341.973,689.282,1328.994,771.784z"/>
								<path style="fill:#FCFDFE;" d="M1281.029,585.431l-1.436,0.894c-21.499-34.541-75.296-97.325-194.049-129.73l0.445-1.633
									c40.103,10.942,78.136,27.393,109.989,47.575C1232.636,525.762,1261.251,553.652,1281.029,585.431z"/>
							</g>
						</g>
					</g>
				</g>
				<g>
					<g>
						<defs>
							<path id="SVGID_00000076586181717916848370000010996145848968978864_" d="M1362.502,1780.341
								c-65.479-8.817-130.911-19.136-196.241-30.955c-1.049,0.971-24.202-140.843,42.378-216.173
								c131.695-145.966,40.229-274.419,13.654-350.868c-42.354-107.744-22.922-239.561,96.598-216.37
								c116.406,19.809,131.115-219.522,108.827-403.49c-18.2-89.449,65.07-199.262,149.185-225.15
								c85.844-28.592,172.531,26.74,201.061,205.13c42.417,206.434-107.073,333.053-161.729,437.475
								c-53.781,102.51,75.214,183.351-26.708,274.839c-85.678,81.232-194.19,140.198-153.012,240.426
								C1478.774,1594.279,1469.938,1675.806,1362.502,1780.341z"/>
						</defs>
						<clipPath id="SVGID_00000098219581700540662670000003346395153181879948_">
							<use xlink:href="#SVGID_00000076586181717916848370000010996145848968978864_"  style="overflow:visible;"/>
						</clipPath>
						
							<linearGradient id="SVGID_00000143606290439040321230000009647819551302607288_" gradientUnits="userSpaceOnUse" x1="1784.1354" y1="1173.5532" x2="1362.8094" y2="1025.955">
							<stop  offset="0" style="stop-color:#46736E"/>
							<stop  offset="0.9964" style="stop-color:#2F4F4F"/>
						</linearGradient>
						
							<path style="clip-path:url(#SVGID_00000098219581700540662670000003346395153181879948_);fill:url(#SVGID_00000143606290439040321230000009647819551302607288_);" d="
							M1362.502,1780.341c-65.479-8.817-130.911-19.136-196.241-30.955c-1.049,0.971-24.202-140.843,42.378-216.173
							c131.695-145.966,40.229-274.419,13.654-350.868c-41.941-107.669-21.999-225.055,88.067-228.127
							c122.048-5.797,141.726-208.162,117.358-391.733c-18.2-89.449,65.07-199.262,149.185-225.15
							c85.844-28.592,172.531,26.74,201.061,205.13c42.417,206.434-107.073,333.053-161.729,437.475
							c-53.781,102.51,75.214,183.351-26.708,274.839c-85.678,81.232-194.19,140.198-153.012,240.426
							C1478.774,1594.279,1469.938,1675.806,1362.502,1780.341z"/>
						<g style="clip-path:url(#SVGID_00000098219581700540662670000003346395153181879948_);">
							<path style="fill:#FCFDFE;" d="M1274.999,1789.827l-2.261,0c-0.035-1.262,58.791-300.878,162.942-593.056
								c14.3-47.29,29.881-94.991,44.948-141.121c40.352-123.539,82.076-251.283,101.084-378.21
								c21.252-141.888,11.511-269.332-29.773-389.615l2.137-0.734c41.406,120.634,51.177,248.427,29.873,390.683
								c-19.037,127.115-60.792,254.95-101.17,378.577c-15.064,46.119-30.641,93.808-44.952,141.127
								C1337.562,1478.756,1275.662,1780.698,1274.999,1789.827z"/>
							<path style="fill:#FCFDFE;" d="M1555.552,816.75l-1.7-1.492c71.883-81.849,158.404-197.976,204.887-260.364
								c36.287-48.706,37.552-50.053,39.003-49.846l-0.161,1.119l0.444,1.014c-1.85,1.25-17.57,22.35-37.473,49.064
								C1714.049,618.658,1627.495,734.833,1555.552,816.75z"/>
							<path style="fill:#FCFDFE;" d="M1576.567,705.538c-16.235-92.768-55.282-153.413-85.181-187.952
								c-33.275-38.439-63.095-54.496-66.085-54.744c0.011-0.001,0.234,0.016,0.497-0.163l-1.281-1.864
								c0.583-0.4,1.349-0.298,3.034,0.411c8.1,3.404,38.44,21.875,70.521,60.769c40.417,49,68.328,112.333,80.72,183.152
								L1576.567,705.538z"/>
							<path style="fill:#FCFDFE;" d="M1376.17,1387.724l-2.248-0.24c9.23-86.492-12.024-179.144-63.172-275.379
								c-26.673-50.185-60.507-99.255-100.563-145.848c-2.771-3.223-3.908-4.552-4.229-5.091l1.943-1.157
								c0.232,0.391,1.895,2.325,4.001,4.774c40.162,46.72,74.091,95.929,100.844,146.26
								C1364.111,1207.685,1385.451,1300.774,1376.17,1387.724z"/>
							<path style="fill:#FCFDFE;" d="M1404.545,1296.397l-1.939-1.167c76.79-127.496,241.697-138.178,243.152-137.866l0.857,1.049
								l-0.764,1.121l-0.369-1.052l-0.093,1.103c-0.004-0.001-0.009-0.001-0.013-0.001
								C1643.04,1159.584,1480.723,1169.912,1404.545,1296.397z M1645.105,1157.4l0.371,1.064L1645.105,1157.4z"/>
							<path style="fill:#FCFDFE;" d="M1285.316,1740.948l-2.261-0.055c0.925-37.634-13.298-101.587-86.305-192.538
								c-3.906-4.867-3.906-4.867-3.819-5.528l2.241,0.294l-1.121-0.147l1.038-0.418c0.199,0.366,1.694,2.228,3.424,4.384
								C1271.948,1638.423,1286.25,1702.937,1285.316,1740.948z"/>
							<path style="fill:#FCFDFE;" d="M1301.056,1669.899l-2.177-0.603c7.927-28.656,39.827-85.006,164.391-140.438
								c1.729-0.769,2.842-1.262,3.237-1.472l1.06,1.999c-0.415,0.219-1.572,0.737-3.376,1.539
								C1340.474,1585.979,1308.88,1641.628,1301.056,1669.899z"/>
						</g>
					</g>
				</g>
			</g>
			<g>
				<g>
					<g>
						
							<linearGradient id="SVGID_00000004543337503373463010000001549354187675862164_" gradientUnits="userSpaceOnUse" x1="1617.9794" y1="4258.7915" x2="596.3734" y2="5185.8877" gradientTransform="matrix(0 -1 1 0 -3755.802 2528.6064)">
							<stop  offset="0" style="stop-color:#3B3138"/>
							<stop  offset="1" style="stop-color:#241F21"/>
						</linearGradient>
						<path style="fill:url(#SVGID_00000004543337503373463010000001549354187675862164_);" d="M1495.133,2033.235
							c0,28.334-20.103,52.56-44.893,54.007l-956.282,55.815c-28.401,1.658-51.587-21.783-51.587-52.258V719.014
							c0-30.476,23.186-54.33,51.587-53.18l956.282,38.754c24.79,1.005,44.893,24.872,44.893,53.207V2033.235z"/>
						
							<linearGradient id="SVGID_00000114074994338199486850000007275621040918734479_" gradientUnits="userSpaceOnUse" x1="490.9303" y1="1405.267" x2="1656.0336" y2="1372.8029">
							<stop  offset="0" style="stop-color:#5D535A"/>
							<stop  offset="1" style="stop-color:#464143"/>
						</linearGradient>
						<path style="fill:url(#SVGID_00000114074994338199486850000007275621040918734479_);" d="M1523.209,2033.235
							c0,28.334-20.103,52.56-44.893,54.007l-956.282,55.815c-28.4,1.658-51.587-21.783-51.587-52.258V719.014
							c0-30.476,23.186-54.33,51.587-53.18l956.282,38.754c24.79,1.005,44.893,24.872,44.893,53.207V2033.235z"/>
						
							<linearGradient id="SVGID_00000058571151855135049820000005769887501323042694_" gradientUnits="userSpaceOnUse" x1="846.2166" y1="5071.2944" x2="1423.3646" y2="4365.8911" gradientTransform="matrix(0 -1 1 0 -3755.802 2528.6064)">
							<stop  offset="0" style="stop-color:#96888E"/>
							<stop  offset="1" style="stop-color:#706369"/>
						</linearGradient>
						<path style="fill:url(#SVGID_00000058571151855135049820000005769887501323042694_);" d="M494.506,719.899v1369.584
							c0,16.289,12.338,28.795,27.529,27.934l756.316-42.846l199.965-11.328c13.283-0.752,24.031-13.677,24.031-28.869V757.026
							c0-15.192-10.749-27.925-24.031-28.44l-207.185-8.041l-749.097-29.071C506.844,690.885,494.506,703.611,494.506,719.899z"/>
						
							<linearGradient id="SVGID_00000079466645903435758580000011128667992071504804_" gradientUnits="userSpaceOnUse" x1="1187.1716" y1="703.0719" x2="429.1264" y2="3305.2439">
							<stop  offset="0" style="stop-color:#E4D6CA"/>
							<stop  offset="1" style="stop-color:#D4BDAC"/>
						</linearGradient>
						<path style="fill:url(#SVGID_00000079466645903435758580000011128667992071504804_);" d="M1489.094,1975.307
							c0,5.651-4.53,10.48-10.1,10.765l-957.735,48.972c-6.364,0.325-11.548-4.329-11.548-10.376V719.927
							c0-6.047,5.184-10.773,11.548-10.534l957.735,36.018c5.57,0.209,10.1,4.978,10.1,10.629V1975.307z"/>
						
							<linearGradient id="SVGID_00000181066302981851334400000010940824891032970651_" gradientUnits="userSpaceOnUse" x1="1024.5013" y1="1976.3059" x2="1005.2358" y2="2123.0198">
							<stop  offset="0" style="stop-color:#5D535A"/>
							<stop  offset="1" style="stop-color:#464143"/>
						</linearGradient>
						<path style="fill:url(#SVGID_00000181066302981851334400000010940824891032970651_);" d="M1112.568,2060.218l-194.474,10.695
							c-10.398,0.572-18.837-6.637-18.837-16.104v-0.71c0-9.466,8.439-17.583,18.837-18.13l194.474-10.228
							c10.107-0.532,18.29,6.589,18.29,15.905v0.699C1130.858,2051.66,1122.675,2059.662,1112.568,2060.218z"/>
						<path style="fill:#FFFFFF;" d="M1025.94,711.03c0,5.036-4.455,8.948-9.954,8.738c-5.503-0.21-9.967-4.468-9.967-9.511
							c0-5.043,4.464-8.955,9.967-8.738C1021.485,701.737,1025.94,705.995,1025.94,711.03z"/>
					</g>
					<g style="opacity:0.3;">
						<path style="fill:#FFFFFF;" d="M1270.095,1943.457c-3.898-83.589,89.041-132.613,80.112-250.531
							c-0.806-10.639-9.111-101.89-82.554-163.743c-65.95-55.543-121.383-34.645-243.447-78.948
							c-85.549-31.049-181.724-65.956-220.622-135.992c-77.247-139.082,143.49-278.001,98.31-458.054
							c-12.946-51.593-49.499-114.836-146.041-180.88l-233.82-9.476c-28.4-1.151-51.587,22.703-51.587,53.179v1371.785
							c0,30.476,23.186,53.917,51.587,52.259l871.307-50.856C1300.536,2038.551,1272.126,1987.009,1270.095,1943.457z"/>
					</g>
				</g>
				<g>
					<path style="fill:#FFFFFF;" d="M1417.657,870.653l-834.355-23.617c-8.696-0.246-15.636,6.253-15.636,14.516v610.645
						c0,8.263,7.291,14.894,15.987,14.81l833.887-8.023c7.849-0.075,13.623-6.492,13.623-14.332V885.251
						C1431.163,877.41,1425.506,870.875,1417.657,870.653z"/>
					<path style="fill:#FFFFFF;" d="M868.372,805.622c0,8.268-6.819,14.76-15.239,14.5l-270.245-8.358
						c-8.71-0.269-15.778-7.314-15.778-15.736l0,0c0-8.421,7.068-15.016,15.778-14.731l270.245,8.854
						C861.553,790.427,868.372,797.354,868.372,805.622L868.372,805.622z"/>
				</g>
				<g>
					<defs>
						<path id="SVGID_00000087407916928170949680000014891575563301011869_" d="M1788.603,483.207H335l165.922,694.269h64.658
							v294.721c0,8.263,7.226,14.894,15.922,14.81l833.92-8.023c7.849-0.075,13.655-6.492,13.655-14.332v-287.176h66.744
							L1788.603,483.207z"/>
					</defs>
					<clipPath id="SVGID_00000129169661220847340660000008258403050310809525_">
						<use xlink:href="#SVGID_00000087407916928170949680000014891575563301011869_"  style="overflow:visible;"/>
					</clipPath>
					<g style="clip-path:url(#SVGID_00000129169661220847340660000008258403050310809525_);">
						
							<linearGradient id="SVGID_00000007398708641836274520000009857828331410560670_" gradientUnits="userSpaceOnUse" x1="3806.5125" y1="643.5609" x2="3779.1584" y2="812.511" gradientTransform="matrix(-1 0 0 1 4415.5674 0)">
							<stop  offset="0" style="stop-color:#CBAF85"/>
							<stop  offset="1" style="stop-color:#BA7C44"/>
						</linearGradient>
						<path style="fill:url(#SVGID_00000007398708641836274520000009857828331410560670_);" d="M628.284,764.764
							c0,0-15.263-31.978-7.248-58.024c8.014-26.046,14.466-49.178,10.474-55.615c-3.992-6.437-8.086,11.533-16.381,19.785
							c-8.295,8.252-19.29,35.064-16.091,44.257s11.178,52.093,11.178,52.093L628.284,764.764z"/>
						
							<linearGradient id="SVGID_00000114034725566955522600000000767266503578015133_" gradientUnits="userSpaceOnUse" x1="2812.3389" y1="682.4869" x2="2904.8591" y2="808.7969" gradientTransform="matrix(-1 0 0 1 4415.5674 0)">
							<stop  offset="0" style="stop-color:#CBAF85"/>
							<stop  offset="1" style="stop-color:#BA7C44"/>
						</linearGradient>
						<path style="fill:url(#SVGID_00000114034725566955522600000000767266503578015133_);" d="M1518.457,757.301
							c0,0,24.397-30.217,43.151-52.093c18.754-21.876,59.461-29.877,66.376-36.005c6.916-6.129,0.021,20.684-14.534,26.812
							c-14.555,6.128-26.047,18.386-30.643,24.514c-4.596,6.129,15.321-3.831,22.216-3.064c6.894,0.766-10.725,10.677-22.216,14.148
							c-11.491,3.471-28.574,13.447-28.574,13.447l-23.519,27.079L1518.457,757.301z"/>
						
							<linearGradient id="SVGID_00000127023502525557367740000007577020008044012182_" gradientUnits="userSpaceOnUse" x1="2977.0342" y1="1370.2441" x2="3082.0247" y2="949.0744" gradientTransform="matrix(-1 0 0 1 4415.5674 0)">
							<stop  offset="0" style="stop-color:#F6AF9A"/>
							<stop  offset="0.9964" style="stop-color:#F89F8A"/>
						</linearGradient>
						<path style="fill:url(#SVGID_00000127023502525557367740000007577020008044012182_);" d="M1114.355,1013.934
							c66.87-18.703,119.341-43.684,156.278-64.35c54.899-30.714,82.347-46.071,108.016-74.692
							c35.653-39.754,46.552-76.498,95.376-105.718c17.696-10.591,33.94-16.343,44.815-19.535
							c6.895,7.278,13.789,14.555,20.684,21.833c-3.549,26.237-12.372,68.849-38.409,113.083
							c-38.743,65.822-71.878,60.955-151.194,151.212c-33.904,38.581-50.988,65.801-97.674,104.568
							c-35.505,29.482-59.402,48.845-81.587,43.666C1134.879,1175.648,1114.03,1105.889,1114.355,1013.934z"/>
						
							<linearGradient id="SVGID_00000142881600275448200930000005186272029035515056_" gradientUnits="userSpaceOnUse" x1="3498.5291" y1="1500.2441" x2="3603.5195" y2="1079.0757" gradientTransform="matrix(-1 0 0 1 4415.5674 0)">
							<stop  offset="0" style="stop-color:#F6AF9A"/>
							<stop  offset="0.9964" style="stop-color:#F89F8A"/>
						</linearGradient>
						<path style="fill:url(#SVGID_00000142881600275448200930000005186272029035515056_);" d="M970.281,1035.511
							c-43.091-5.683-106.921-20.495-171.929-61.795c-30.714-19.512-116.842-74.229-151.682-178.112
							c-5.902-17.597-9.062-32.817-10.849-43.553c-10.173,1.495-20.346,2.989-30.519,4.483
							c-10.073,22.33-23.1,60.363-16.088,104.569c7.753,48.876,36.067,80.47,92.119,141.383
							c32.381,35.189,35.197,32.369,108.974,101.078c81.543,75.942,94.021,94.211,113.761,90.779
							C949.143,1186.508,965.347,1077.131,970.281,1035.511z"/>
						
							<linearGradient id="SVGID_00000141432069416396030150000009205740336590513324_" gradientUnits="userSpaceOnUse" x1="3407.127" y1="1477.4595" x2="3512.1174" y2="1056.291" gradientTransform="matrix(-1 0 0 1 4415.5674 0)">
							<stop  offset="0" style="stop-color:#F6AF9A"/>
							<stop  offset="0.9964" style="stop-color:#F89F8A"/>
						</linearGradient>
						<path style="fill:url(#SVGID_00000141432069416396030150000009205740336590513324_);" d="M752.197,1500.238h533.632
							c-1.123-17.399-5.298-38.483-10.599-64.582c-17.581-86.562-39.167-92.697-58.604-173.515
							c-12.626-52.495-19.881-117.944-24.131-156.278c-6.724-60.647-6.173-82.872-24.131-95.375
							c-25.568-17.802-49.419,11.417-126.401,18.385c-69.677,6.308-75.447,6.125-129.364-4.926
							c-21.409-4.388-24.501,45.276-36.107,71.575c-18.887,42.802-16.168,68.006-24.131,106.866
							c-10.591,51.691-31.813,87.189-57.041,129.388c-47.185,78.928-82.755,93.342-76.64,127.587
							C721.437,1474.811,732.266,1486.45,752.197,1500.238z"/>
						
							<linearGradient id="SVGID_00000098901783549613827050000002209447959508860544_" gradientUnits="userSpaceOnUse" x1="3287.2185" y1="752.0513" x2="3759.812" y2="752.0513" gradientTransform="matrix(-1 0 0 1 4415.5674 0)">
							<stop  offset="0" style="stop-color:#3B3138"/>
							<stop  offset="1" style="stop-color:#241F21"/>
						</linearGradient>
						<path style="fill:url(#SVGID_00000098901783549613827050000002209447959508860544_);" d="M1078.344,981.417
							c0.011,0.014-2.937,2.446-3.164,2.209c-0.877-0.917,49.126-31.067,52.946-67.496c3.233-30.824-29.546-38.049-41.159-76.131
							c-17.703-58.049,43.646-89.847,34.762-145.591c-5.614-35.223-52.773-63.673-146.86-119.135
							c-157.59-92.896-182.224-77.661-188.844-71.571c-12.869,11.839-18.245,44.854-18.971,63.81
							c-0.797,20.788,3.782,30.241-2.587,36.217c-13.317,12.494-43.952-18.879-70.709-9.485
							c-31.121,10.925-38.785,70.604-37.941,103.476c1.886,73.397,49.079,125.561,52.601,129.345
							c38.792,41.681,86.673,54.862,82.781,76.745c-2.48,13.94-23.094,15.249-24.145,28.456
							c-1.456,18.307,36.251,39.741,71.571,49.151c62.876,16.752,77.37-15.478,134.519,2.587
							c32.308,10.213,53.01,28.522,76.746,18.108C1062.919,996.395,1078.318,981.383,1078.344,981.417z"/>
						
							<linearGradient id="SVGID_00000074401555283630097930000011593409822437344930_" gradientUnits="userSpaceOnUse" x1="3358.6914" y1="1081.4253" x2="3386.8499" y2="923.7385" gradientTransform="matrix(-1 0 0 1 4415.5674 0)">
							<stop  offset="0" style="stop-color:#CBAF85"/>
							<stop  offset="1" style="stop-color:#BA7C44"/>
						</linearGradient>
						<path style="fill:url(#SVGID_00000074401555283630097930000011593409822437344930_);" d="M1059.292,941.602
							c0,0,1.803,67.772,15.61,69.724c13.807,1.952,42.595,1.291,42.595,1.291s-5.975,34.954-54.162,46.097
							c-48.187,11.143-88.011-25.691-88.011-25.691l49.784-20.406l11.315-71.015H1059.292z"/>
						<g>
							
								<linearGradient id="SVGID_00000110461246796236453980000004392700974662698936_" gradientUnits="userSpaceOnUse" x1="3351.6414" y1="943.4946" x2="3392.6721" y2="859.0194" gradientTransform="matrix(-1 0 0 1 4415.5674 0)">
								<stop  offset="0" style="stop-color:#CBAF85"/>
								<stop  offset="1" style="stop-color:#BA7C44"/>
							</linearGradient>
							<path style="fill:url(#SVGID_00000110461246796236453980000004392700974662698936_);" d="M1060.14,872.047
								c20.642,4.692,27.362,32.928,30.215,44.914c2.53,10.631,8.22,34.537-3.983,44.938c-13.76,11.728-42.389-0.434-57.893-14.568
								c-5.783-5.273-17.729-16.164-17.892-31.905C1010.337,891.211,1038.087,867.035,1060.14,872.047z"/>
							
								<linearGradient id="SVGID_00000073686735160630910880000000389352081128687775_" gradientUnits="userSpaceOnUse" x1="3380.3945" y1="956.2733" x2="3421.425" y2="871.7985" gradientTransform="matrix(-1 0 0 1 4415.5674 0)">
								<stop  offset="0" style="stop-color:#CBAF85"/>
								<stop  offset="1" style="stop-color:#BA7C44"/>
							</linearGradient>
							<path style="fill:url(#SVGID_00000073686735160630910880000000389352081128687775_);" d="M1032.091,924.224
								c-7.506-4.9-20.407-0.407-22.056,5.796c-1.978,7.442,11.471,20.249,20.203,16.814c4.829-1.899,8.489-8.876,7.016-15.141
								C1037.105,931.063,1036.034,926.799,1032.091,924.224z"/>
						</g>
						<g style="opacity:0.3;">
							
								<linearGradient id="SVGID_00000158714430999717696290000005083126756993118101_" gradientUnits="userSpaceOnUse" x1="3078.0598" y1="1315.3851" x2="3240.6731" y2="663.0621" gradientTransform="matrix(-1 0 0 1 4415.5674 0)">
								<stop  offset="0" style="stop-color:#F6AF9A"/>
								<stop  offset="0.9964" style="stop-color:#F89F8A"/>
							</linearGradient>
							<path style="fill:url(#SVGID_00000158714430999717696290000005083126756993118101_);" d="M1460.949,886.551
								c-66.055,43.928-101.964,29.92-152.055,79.648c-31.156,30.93-26.227,45.247-69.994,89.302
								c-46.125,46.428-59.198,38.175-72.407,62.753c-23.239,43.241,10.248,81.763,41.031,207.568
								c21.048,86.023,31.134,129.543,9.654,154.469c-24.479,28.407-63.604,9.797-144.664,19.948h213.315
								c-1.123-17.399-5.298-38.483-10.598-64.582c-17.581-86.562-39.167-92.697-58.605-173.515
								c-6.362-26.451-11.358-56.19-15.296-84.093c14.451-7.589,30.825-21.027,50.918-37.713
								c46.685-38.768,63.77-65.987,97.674-104.568c79.315-90.257,112.45-85.39,151.193-151.212
								c11.721-19.911,19.93-39.477,25.764-57.385C1502.891,855.638,1479.475,874.23,1460.949,886.551z"/>
						</g>
					</g>
				</g>
				<g style="opacity:0.75;">
					<polygon style="fill:#FFFFFF;" points="685.891,1586.443 582.688,1588.104 582.688,1553.387 685.891,1551.884 					"/>
					<polygon style="fill:#FFFFFF;" points="1248.664,1577.386 752.125,1585.377 752.125,1550.919 1248.664,1543.687 					"/>
					<polygon style="fill:#FFFFFF;" points="853.798,1642.336 752.125,1644.238 752.125,1609.78 853.798,1608.033 					"/>
					<polygon style="fill:#FFFFFF;" points="1408.347,1631.964 919.053,1641.116 919.053,1606.912 1408.347,1598.508 					"/>
					<polygon style="fill:#FFFFFF;" points="853.798,1700.931 752.125,1703.098 752.125,1668.64 853.798,1666.628 					"/>
					<polygon style="fill:#FFFFFF;" points="1408.347,1689.111 919.053,1699.54 919.053,1665.337 1408.347,1655.656 					"/>
					<polygon style="fill:#FFFFFF;" points="685.891,1763.543 582.688,1766.013 582.688,1731.295 685.891,1728.984 					"/>
					<polygon style="fill:#FFFFFF;" points="1248.664,1750.079 752.125,1761.959 752.125,1727.5 1248.664,1716.379 					"/>
					<polygon style="fill:#FFFFFF;" points="853.798,1818.121 752.125,1820.819 752.125,1786.361 853.798,1783.818 					"/>
					<polygon style="fill:#FFFFFF;" points="1408.347,1803.405 919.053,1816.39 919.053,1782.186 1408.347,1769.95 					"/>
					<polygon style="fill:#FFFFFF;" points="853.798,1876.716 752.125,1879.679 752.125,1845.221 853.798,1842.413 					"/>
					<polygon style="fill:#FFFFFF;" points="1408.347,1860.553 919.053,1874.814 919.053,1840.611 1408.347,1827.097 					"/>
					<polygon style="fill:#FFFFFF;" points="853.798,1935.311 752.125,1938.54 752.125,1904.082 853.798,1901.008 					"/>
					<polygon style="fill:#FFFFFF;" points="1408.347,1917.7 919.053,1933.239 919.053,1899.036 1408.347,1884.245 					"/>
				</g>
			</g>
		</g>
		<g>
			
				<linearGradient id="SVGID_00000063610088806828458580000002573435932247719557_" gradientUnits="userSpaceOnUse" x1="1354.4288" y1="1361.2457" x2="1518.985" y2="1529.3032">
				<stop  offset="0" style="stop-color:#FAEBD7"/>
				<stop  offset="1" style="stop-color:#E8D0BA"/>
			</linearGradient>
			<path style="fill:url(#SVGID_00000063610088806828458580000002573435932247719557_);" d="M1925.458,1906.631
				c0,0,83.842,77.111,92.177,86.92c8.335,9.808,21.492,7.048,29.841,8.981c8.349,1.933,9.04,27.502,17.685,42.437
				c8.646,14.935,11.316,40.435,5.845,46.091c-5.471,5.656-68.369-73.956-68.369-73.956l-113.676-42.34L1925.458,1906.631z"/>
			
				<linearGradient id="SVGID_00000076593055040611149110000012739650493142089616_" gradientUnits="userSpaceOnUse" x1="1169.3759" y1="1542.4413" x2="1333.9315" y2="1710.4982">
				<stop  offset="0" style="stop-color:#FAEBD7"/>
				<stop  offset="1" style="stop-color:#E8D0BA"/>
			</linearGradient>
			<path style="fill:url(#SVGID_00000076593055040611149110000012739650493142089616_);" d="M1636.836,1969.154
				c19.106,77.404,40.408,97.97,57.139,101.266c5.974,1.177,23.987,2.639,27.995,12.967c2.184,5.629-1.717,8.923-0.848,17.461
				c1.157,11.355,9.118,15.917,15.495,25.596c11.025,16.73,12.019,40.706,6.707,43.334c0,0-5.405,2.674-68.903-82.796l0,0
				l-88.113-68.044L1636.836,1969.154z"/>
			
				<linearGradient id="SVGID_00000097465348036041886340000009891275355932320904_" gradientUnits="userSpaceOnUse" x1="3673.418" y1="1893.8915" x2="3766.1018" y2="1403.9902" gradientTransform="matrix(-0.9921 0.1258 0.1258 0.9921 5274.917 -320.0572)">
				<stop  offset="0" style="stop-color:#3B3138"/>
				<stop  offset="1" style="stop-color:#241F21"/>
			</linearGradient>
			<path style="fill:url(#SVGID_00000097465348036041886340000009891275355932320904_);" d="M1848.627,1578.598
				c14.647,20.84-44.608,126.484-79.608,179.16c-5.793,8.718-13.298,19.564-10.338,31.224
				c8.079,31.826,81.744,20.945,145.311,59.549c24.466,14.858,55.55,41.972,80.498,95.79
				c-13.393,19.841-26.788,39.683-40.181,59.524c-31.673-11.43-76.194-29.444-126.826-56.868
				c-71.458-38.704-110.065-59.614-137.299-98.89c-50.813-73.28-32.289-167.59-21.688-207.56
				C1800.675,1570.304,1840.4,1566.892,1848.627,1578.598z"/>
			
				<linearGradient id="SVGID_00000093165350329434397240000007036930942371354016_" gradientUnits="userSpaceOnUse" x1="3893.0681" y1="1935.4531" x2="3985.7522" y2="1445.5499" gradientTransform="matrix(-0.9921 0.1258 0.1258 0.9921 5274.917 -320.0572)">
				<stop  offset="0" style="stop-color:#3B3138"/>
				<stop  offset="1" style="stop-color:#241F21"/>
			</linearGradient>
			<path style="fill:url(#SVGID_00000093165350329434397240000007036930942371354016_);" d="M1663.794,1637.92
				c1.712,3.968,3.358,13.725-73.007,100.176c-46.124,52.215-61.328,66.659-59.436,87.37c1.726,18.892,20.341,25.764,60.711,56.549
				c63.945,48.763,72.693,53.219,76.25,66.744c9.852,37.465-29.133,94.212-69.808,96.629c-8.405,0.5-25.056-0.835-75.542-50.429
				c-47.199-46.364-70.799-69.546-82.936-98.388c-34.239-81.356,0.523-199.878,80.148-248.319
				C1577.081,1613.633,1654.461,1616.292,1663.794,1637.92z"/>
			<g style="opacity:0.3;">
				
					<linearGradient id="SVGID_00000100352706187801515610000001503174634963454605_" gradientUnits="userSpaceOnUse" x1="3866.0071" y1="1930.3323" x2="3958.6907" y2="1440.4316" gradientTransform="matrix(-0.9921 0.1258 0.1258 0.9921 5274.917 -320.0572)">
					<stop  offset="0" style="stop-color:#5D535A"/>
					<stop  offset="1" style="stop-color:#464143"/>
				</linearGradient>
				<path style="fill:url(#SVGID_00000100352706187801515610000001503174634963454605_);" d="M1620.603,1955.656
					c-47.326-29.509-77.413-16.954-108.483-48.529c-34.324-34.881-31.679-84.828-31.365-89.453
					c2.211-32.535,18.476-51.487,26.977-67.933c10.653-20.609,15.948-50.572,3.81-95.801c2.822-1.979,5.687-3.896,8.633-5.688
					c56.906-34.619,134.285-31.96,143.619-10.332c1.712,3.968,3.358,13.725-73.007,100.176
					c-46.124,52.215-61.328,66.659-59.436,87.37c1.726,18.892,20.341,25.764,60.711,56.549
					c63.945,48.763,72.693,53.219,76.25,66.744c3.449,13.118,0.897,28.596-5.604,43.282
					C1651.902,1979.462,1638.11,1966.571,1620.603,1955.656z"/>
			</g>
			<g style="opacity:0.3;">
				
					<linearGradient id="SVGID_00000038388481818391211800000018414566869159015090_" gradientUnits="userSpaceOnUse" x1="3659.6272" y1="1891.2819" x2="3752.3105" y2="1401.3831" gradientTransform="matrix(-0.9921 0.1258 0.1258 0.9921 5274.917 -320.0572)">
					<stop  offset="0" style="stop-color:#5D535A"/>
					<stop  offset="1" style="stop-color:#464143"/>
				</linearGradient>
				<path style="fill:url(#SVGID_00000038388481818391211800000018414566869159015090_);" d="M1834.784,1872.88
					c-77.472-45.524-125.009-23.476-142.989-57.5c-17.662-33.422,23.482-63.641,21.392-129.512
					c-0.76-23.958-7.019-45.527-15.532-64.221c110.538-51.859,143.557-53.599,150.972-43.049
					c14.647,20.84-44.608,126.484-79.608,179.16c-5.793,8.718-13.298,19.564-10.338,31.224
					c8.079,31.826,81.744,20.945,145.311,59.549c24.466,14.858,55.55,41.972,80.498,95.79c-1.955,2.896-3.909,5.791-5.864,8.688
					c-20.563-4.316-42.898-11.509-65.456-23.333C1874.603,1909.458,1874.565,1896.256,1834.784,1872.88z"/>
			</g>
			
				<linearGradient id="SVGID_00000060718909399940897190000013609976239481497772_" gradientUnits="userSpaceOnUse" x1="3234.9888" y1="853.1123" x2="3729.3918" y2="853.1123" gradientTransform="matrix(-0.9921 0.1258 0.1258 0.9921 5274.917 -320.0572)">
				<stop  offset="0" style="stop-color:#3B3138"/>
				<stop  offset="1" style="stop-color:#241F21"/>
			</linearGradient>
			<path style="fill:url(#SVGID_00000060718909399940897190000013609976239481497772_);" d="M1754.055,1104.77
				c-8.886-13.222-14.631-24.369-29.248-37.684c-19.481-17.746-29.3-16.185-35.186-27.52c-10.999-21.187,7.643-56.801,30.034-78.259
				c29.16-27.944,52.234-19.956,92.624-37.674c55.488-24.341,49.865-56.053,121.733-118.879
				c51.777-45.263,87.985-76.915,130.376-70.698c54.333,7.969,93.903,74.495,99.801,131.601
				c6.552,63.437-27.495,124.447-71.715,153.689c-43.374,28.684-70.848,9.818-103.667,42.066
				c-37.504,36.851-16.017,75.628-52.071,104.685c-32.304,26.035-86.52,24.697-120.369,5.227
				C1787.703,1154.836,1764.254,1119.945,1754.055,1104.77z"/>
			
				<linearGradient id="SVGID_00000036232516296974112530000016258974812946053538_" gradientUnits="userSpaceOnUse" x1="4081.0244" y1="739.5209" x2="4031.0046" y2="924.8885" gradientTransform="matrix(-0.9921 0.1258 0.1258 0.9921 5274.917 -320.0572)">
				<stop  offset="0" style="stop-color:#FAEBD7"/>
				<stop  offset="1" style="stop-color:#E8D0BA"/>
			</linearGradient>
			<path style="fill:url(#SVGID_00000036232516296974112530000016258974812946053538_);" d="M1369.898,1032.937
				c0,0-17.487-25.568-19.906-44.643c-2.419-19.075-10.625-41.392-16.753-49.513c-6.128-8.121-6.728,22.233-5.494,31.964
				c1.234,9.731,15.78,39.745,15.78,39.745l23.531,35.655L1369.898,1032.937z"/>
			
				<linearGradient id="SVGID_00000057849434546551582340000006155705390527516290_" gradientUnits="userSpaceOnUse" x1="3399.4934" y1="595.8634" x2="3456.8691" y2="854.7908" gradientTransform="matrix(-0.9921 0.1258 0.1258 0.9921 5274.917 -320.0572)">
				<stop  offset="0" style="stop-color:#FAEBD7"/>
				<stop  offset="1" style="stop-color:#E8D0BA"/>
			</linearGradient>
			<path style="fill:url(#SVGID_00000057849434546551582340000006155705390527516290_);" d="M1966.149,835.156
				c-0.891-7.026,7.069-72.079,12.249-83.859c5.18-11.78,21.798-56.153,9.356-49.014c-12.442,7.139-28.684,47.016-31.322,56.249
				c-2.64,9.233-3.306,58.65-3.306,58.65L1966.149,835.156z"/>
			
				<linearGradient id="SVGID_00000062176809426076463940000003525266056554625922_" gradientUnits="userSpaceOnUse" x1="3942.2783" y1="1309.1337" x2="3831.9424" y2="620.6373" gradientTransform="matrix(-0.9921 0.1258 0.1258 0.9921 5274.917 -320.0572)">
				<stop  offset="0" style="stop-color:#95AFC7"/>
				<stop  offset="1" style="stop-color:#7595B6"/>
			</linearGradient>
			<path style="fill:url(#SVGID_00000062176809426076463940000003525266056554625922_);" d="M1370.779,1011.88
				c-7.884,5.078-15.766,10.156-23.65,15.235c-0.664,32.628,3.394,86.891,34.606,141.318
				c79.662,138.917,258.569,143.512,270.7,143.633c7.439,0.71,34.831,2.439,55.812-15.976c25.44-22.328,30.445-64.608,15.582-87.621
				c-25.994-40.248-100.976-3.309-182.456-26.988C1492.241,1167.203,1428.597,1127.354,1370.779,1011.88z"/>
			
				<linearGradient id="SVGID_00000109006179625667379490000003593348222459295912_" gradientUnits="userSpaceOnUse" x1="3575.0547" y1="1367.9834" x2="3464.7163" y2="679.4724" gradientTransform="matrix(-0.9921 0.1258 0.1258 0.9921 5274.917 -320.0572)">
				<stop  offset="0" style="stop-color:#95AFC7"/>
				<stop  offset="1" style="stop-color:#7595B6"/>
			</linearGradient>
			<path style="fill:url(#SVGID_00000109006179625667379490000003593348222459295912_);" d="M1982.472,809.731
				c-11.809-1.834-23.617-3.668-35.427-5.502c7.397,35.332,16.579,102.8-4.356,182.949
				c-15.517,59.404-34.244,131.099-92.792,169.685c-15.535,10.239-32.416,17.185-36.999,34.748
				c-7.986,30.602,25.483,77.65,58.038,80.509c52.835,4.64,107.133-106.78,127.805-177.716
				C2011.838,1049.461,2032.762,947.593,1982.472,809.731z"/>
			
				<linearGradient id="SVGID_00000069364644604486972550000005989161979776786066_" gradientUnits="userSpaceOnUse" x1="3765.8179" y1="1337.4159" x2="3655.478" y2="648.8962" gradientTransform="matrix(-0.9921 0.1258 0.1258 0.9921 5274.917 -320.0572)">
				<stop  offset="0" style="stop-color:#95AFC7"/>
				<stop  offset="1" style="stop-color:#7595B6"/>
			</linearGradient>
			<path style="fill:url(#SVGID_00000069364644604486972550000005989161979776786066_);" d="M1746.36,1666.551
				c24.872,2.683,89.896,5.372,146.705-35.751c19.214-13.908,42.952-31.092,53.404-61.274
				c16.062-46.38-18.267-68.541-34.093-147.689c-8.49-42.461,0.993-38.069-5.381-189.883c-2.256-53.728-5.079-93.231-21.8-97.814
				c-9.281-2.544-16.189,7.495-47.135,27.013c-8.795,5.547-34.283,21.623-55.292,29.291c-51.598,18.833-79.172-11.957-104.13,3.734
				c-31.123,19.566,0.491,74.526-17.724,147.699c-18.521,74.402-65.332,74.329-140.706,190.502
				c-28.714,44.256-84.538,130.296-58.286,163.109c19.003,23.753,74.432,11.384,94.312,6.948
				c62.55-13.958,78.55-48.357,132.946-48.004C1715.672,1654.605,1711.22,1662.76,1746.36,1666.551z"/>
			
				<linearGradient id="SVGID_00000018943184704859971450000005847563614209975720_" gradientUnits="userSpaceOnUse" x1="3651.8232" y1="1165.5559" x2="3648.8809" y2="878.676" gradientTransform="matrix(-0.9921 0.1258 0.1258 0.9921 5274.917 -320.0572)">
				<stop  offset="0" style="stop-color:#FAEBD7"/>
				<stop  offset="1" style="stop-color:#E8D0BA"/>
			</linearGradient>
			<path style="fill:url(#SVGID_00000018943184704859971450000005847563614209975720_);" d="M1778.335,1100.339
				c4.177,18.385,12.625,39.591,31.297,50.903c17.026,10.315,30.5,5.103,33.678,12.478c7.776,18.044-59.184,81.047-96.497,65.191
				c-10.569-4.491-20.716-16.141-18.611-23.963c2.462-9.148,19.91-6.478,29.712-16.385c8.432-8.523,12.27-27.431-5.431-72.095
				C1761.1,1111.092,1769.718,1105.715,1778.335,1100.339z"/>
			<g>
				
					<linearGradient id="SVGID_00000081648599827616860810000014168906498277414590_" gradientUnits="userSpaceOnUse" x1="3700.1892" y1="1023.0275" x2="3625.1594" y2="867.083" gradientTransform="matrix(-0.9921 0.1258 0.1258 0.9921 5274.917 -320.0572)">
					<stop  offset="0" style="stop-color:#FAEBD7"/>
					<stop  offset="1" style="stop-color:#E8D0BA"/>
				</linearGradient>
				<path style="fill:url(#SVGID_00000081648599827616860810000014168906498277414590_);" d="M1740.049,1044.02
					c-18.106,9.24-17.696,37.108-17.522,48.937c0.154,10.493,0.502,34.087,14.315,40.887c15.576,7.668,39.352-10.41,50.446-27.226
					c4.138-6.273,12.687-19.23,9.123-33.92C1790.929,1050.101,1759.392,1034.15,1740.049,1044.02z"/>
				
					<linearGradient id="SVGID_00000127759570332344934090000017589503148627744179_" gradientUnits="userSpaceOnUse" x1="3663.8958" y1="1040.4894" x2="3588.8652" y2="884.5437" gradientTransform="matrix(-0.9921 0.1258 0.1258 0.9921 5274.917 -320.0572)">
					<stop  offset="0" style="stop-color:#FAEBD7"/>
					<stop  offset="1" style="stop-color:#E8D0BA"/>
				</linearGradient>
				<path style="fill:url(#SVGID_00000127759570332344934090000017589503148627744179_);" d="M1787.257,1088.827
					c5.83-6.333,18.899-5.196,21.898,0.189c3.598,6.46-5.897,21.555-14.835,20.419c-4.943-0.628-9.997-6.258-10.105-12.436
					C1784.204,1096.376,1784.194,1092.154,1787.257,1088.827z"/>
			</g>
			<g style="opacity:0.3;">
				
					<linearGradient id="SVGID_00000133490188994172423480000012253895331293201034_" gradientUnits="userSpaceOnUse" x1="3602.6462" y1="1229.0164" x2="3430.1138" y2="152.4132" gradientTransform="matrix(-0.9921 0.1258 0.1258 0.9921 5274.917 -320.0572)">
					<stop  offset="0" style="stop-color:#A6B2C7"/>
					<stop  offset="1" style="stop-color:#7595B6"/>
				</linearGradient>
				<path style="fill:url(#SVGID_00000133490188994172423480000012253895331293201034_);" d="M1783.15,1623.607
					c-14.947-43.31-79.632-46.959-81.164-78.688c-2.066-42.773,114.91-48.197,150.595-128.101
					c25.772-57.709-23.247-81.743-11.789-163.12c14.218-100.981,97.572-119.884,145.469-238.677
					c13.615-33.768,20.595-66.27,23.883-95.068c11.125,81.861-2.101,142.529-11.404,174.452
					c-15.811,54.254-51.292,132.187-90.744,163.767c4.275,125.227-3.591,123.81,4.379,163.666
					c15.826,79.148,50.155,101.309,34.093,147.689c-10.453,30.182-34.19,47.366-53.404,61.274
					c-38.485,27.859-80.725,35.601-111.713,36.869C1786.626,1652.331,1787.9,1637.37,1783.15,1623.607z"/>
			</g>
			<g style="opacity:0.3;">
				
					<linearGradient id="SVGID_00000124119283506885361660000003384925811611680405_" gradientUnits="userSpaceOnUse" x1="3959.5784" y1="1306.3595" x2="3849.2437" y2="617.8702" gradientTransform="matrix(-0.9921 0.1258 0.1258 0.9921 5274.917 -320.0572)">
					<stop  offset="0" style="stop-color:#A6B2C7"/>
					<stop  offset="1" style="stop-color:#7595B6"/>
				</linearGradient>
				<path style="fill:url(#SVGID_00000124119283506885361660000003384925811611680405_);" d="M1388.671,1144.195
					c55.584,39.983,118.677,28.026,155.356,84.851c11.635,18.025,17.801,38.618,39.226,46.19
					c27.297,9.648,50.602-12.007,64.323-1.484c3.813,2.924,19.584,17.102,32.223,36.569c-12.353,2.872-23.115,2.15-27.364,1.744
					c-12.131-0.12-191.038-4.715-270.7-143.633c-10.1-17.611-17.342-35.2-22.516-52.049
					C1369.097,1128.44,1379.214,1137.393,1388.671,1144.195z"/>
			</g>
		</g>
	</g>
</g>
</svg>
